<svg height="747.97143" viewBox="0 0 896 747.97143" width="896" xmlns="http://www.w3.org/2000/svg"><path d="m193.634 788.75225c12.42842 23.049 38.806 32.9435 38.806 32.9435s6.22712-27.47543-6.2013-50.52448-38.806-32.9435-38.806-32.9435-6.22711 27.47543 6.2013 50.52448z" fill="#2f2e41" transform="translate(-152 -76.01429)"/><path d="m202.17653 781.16927c22.43841 13.49969 31.08016 40.3138 31.08016 40.3138s-27.73812 4.92679-50.17653-8.57291-31.08016-40.3138-31.08016-40.3138 27.73811-4.92678 50.17653 8.57291z" fill="#00a79b" transform="translate(-152 -76.01429)"/><g fill="#f2f2f2"><path d="m413.2485 35.90779h140v2h-140z"/><path d="m513.2485 37.40779h2v18.5h-2z"/><path d="m452.2485 37.40779h2v18.5h-2z"/><path d="m484.2485 131.90779h140v2h-140z"/><path d="m522.2485 113.90779h2v18.5h-2z"/><path d="m583.2485 113.90779h2v18.5h-2z"/><path d="m670.2485 176.90779h140v2h-140z"/><path d="m708.2485 158.90779h2v18.5h-2z"/><path d="m769.2485 158.90779h2v18.5h-2z"/><path d="m656.2485 640.90779h140v2h-140z"/><path d="m694.2485 622.90779h2v18.5h-2z"/><path d="m755.2485 622.90779h2v18.5h-2z"/><path d="m417.2485 319.90779h140v2h-140z"/><path d="m455.2485 301.90779h2v18.5h-2z"/><path d="m516.2485 301.90779h2v18.5h-2z"/><path d="m461.2485 560.90779h140v2h-140z"/><path d="m499.2485 542.90779h2v18.5h-2z"/><path d="m560.2485 542.90779h2v18.5h-2z"/><path d="m685.2485 487.90779h140v2h-140z"/><path d="m723.2485 469.90779h2v18.5h-2z"/><path d="m784.2485 469.90779h2v18.5h-2z"/></g><path d="m362.06 702.184h-236.786v-1.703h235.082v-82.62h-215.176l-10.453-21.777 1.536-.737 9.989 20.81h215.808z" fill="#2f2e41"/><circle cx="156.78851" cy="726.03301" fill="#3f3d56" r="17.88673"/><circle cx="333.10053" cy="726.03301" fill="#3f3d56" r="17.88673"/><circle cx="540.92726" cy="346.153" fill="#3f3d56" r="11.07274"/><path d="m539.38538 665.76747h-266.14865l-57.58829-188.23647h383.04412l-.34852 1.10753zm-264.8885-1.7035h263.63912l58.23417-184.82951h-378.41935z" fill="#2f2e41" transform="translate(-152 -76.01429)"/><path d="m366.61 579.958h-233.768l-50.582-166.943h336.441l-.306.983z" fill="#f2f2f2"/><path d="m451.465 384.7-1.647-.437 11.241-42.369h65.389v1.704h-64.078z" fill="#2f2e41"/><path d="m82.2584 458.58385h345.2931v1.7035h-345.2931z" fill="#2f2e41"/><path d="m101.45894 521.34377h306.31852v1.7035h-306.31852z" fill="#2f2e41"/><path d="m254.31376 402.36843h1.7035v186.53301h-1.7035z" fill="#2f2e41"/><path d="m385.55745 570.79732h186.92877v1.70379h-186.92877z" fill="#2f2e41" transform="matrix(.06541724 -.997858 .997858 .06541724 -274.73922 936.23495)"/><path d="m334.45728 478.18483h1.70379v186.92877h-1.70379z" fill="#2f2e41" transform="matrix(.99788283 -.06503739 .06503739 .99788283 -188.46866 -52.99638)"/><path d="m0 745h896v2h-896z" fill="#2f2e41"/><path d="m747.41068 137.89028s14.61842 41.60627 5.62246 48.00724 30.36134 58.67548 30.36134 58.67548l47.22874-12.80193-25.86336-43.73993s-3.37348-43.73992-3.37348-50.14089-53.9757.00003-53.9757.00003z" fill="#a0616a" transform="translate(-152 -76.01429)"/><path d="m747.41068 137.89028s14.61842 41.60627 5.62246 48.00724 30.36134 58.67548 30.36134 58.67548l47.22874-12.80193-25.86336-43.73993s-3.37348-43.73992-3.37348-50.14089-53.9757.00003-53.9757.00003z" opacity=".1" transform="translate(-152 -76.01429)"/><path d="m722.87364 434.46832s-4.26731 53.34138 0 81.07889 10.66828 104.5491 10.66828 104.5491 0 145.08854 23.4702 147.22219 40.53945 4.26731 42.6731-4.26731-10.66827-12.80193-4.26731-17.06924 8.53462-19.20289 0-36.27213 0-189.8953 0-189.8953l40.53945 108.81641s4.26731 89.61351 8.53462 102.41544-4.26731 36.27213 10.66827 38.40579 32.00483-10.66828 40.53945-14.93559-12.80193-4.26731-8.53462-6.401 17.06924-8.53462 12.80193-10.66828-8.53462-104.54909-8.53462-104.54909-11.73511-218.6996-26.67069-227.2342-24.537 6.16576-24.537 6.16576z" fill="#2f2e41" transform="translate(-152 -76.01429)"/><path d="m761.27943 758.78388v17.06924s-19.20289 46.39942 0 46.39942 34.13848 4.8083 34.13848-1.59266v-57.60869z" fill="#2f2e41" transform="translate(-152 -76.01429)"/><path d="m887.16508 758.75358v17.06924s19.20289 46.39941 0 46.39941-34.13848 4.80831-34.13848-1.59266v-57.60868z" fill="#2f2e41" transform="translate(-152 -76.01429)"/><circle cx="625.28185" cy="54.4082" fill="#a0616a" r="38.40579"/><g transform="translate(-152 -76.01429)"><path d="m765.54674 201.89993s10.66828 32.00482 27.73752 25.60386l17.06924-6.401 29.87117 204.83091s-23.47021 34.13848-57.60869 12.80193-17.06924-236.8357-17.06924-236.8357z" fill="#00a79b"/><path d="m795.41791 195.499 9.60145-20.26972s56.54186 26.67069 65.07648 35.20531 8.53462 21.33655 8.53462 21.33655l-14.93559 53.34137s4.26731 117.351 4.26731 121.61834 14.93559 27.73751 4.26731 19.20289-12.80193-17.06924-21.33655-4.26731-27.73751 27.73752-27.73751 27.73752z" fill="#3f3d56"/><path d="m870.09584 349.12212-6.401 59.74234s-38.40579 34.13848-29.87117 36.27214 12.80193-6.401 12.80193-6.401 14.93559 14.93559 23.47021 6.401 29.87119-89.61351 29.87119-89.61351z" fill="#a0616a"/><path d="m778.1 76.14416c-8.51412-.30437-17.62549-.45493-24.80406 4.13321a36.31263 36.31263 0 0 0 -8.5723 8.39153c-6.99153 8.83846-13.03253 19.95926-10.43553 30.92537l3.01633-1.1764a19.75086 19.75086 0 0 1 -1.90515 8.46261c.42475-1.2351 1.84722.76151 1.4664 2.01085l-3.32269 10.90067c5.46207-2.00239 12.25661 2.05189 13.08819 7.80969.37974-12.66123 1.6932-27.17965 11.964-34.59331 5.17951-3.73868 11.73465-4.88 18.04162-5.8935 5.81832-.935 11.91781-1.82659 17.49077.08886s10.31871 7.615 9.0553 13.37093c2.56964-.88518 5.44356.90566 6.71347 3.30856s1.33662 5.2375 1.37484 7.95506c2.73911 1.93583 5.85632-1.9082 6.97263-5.07112 2.62033-7.42434 4.94941-15.32739 3.53783-23.073s-7.72325-15.14773-15.59638-15.174a5.46676 5.46676 0 0 0 1.42176-3.84874l-6.48928-.5483a7.1723 7.1723 0 0 0 4.28575-2.25954c-2.6054 2.86693-23.09027-5.56882-27.3035-5.71943z" fill="#2f2e41"/><path d="m776.215 189.098s-17.36929-17.02085-23.62023-15.97822-14.78554 15.97822-14.78554 15.97822-51.20772 17.06924-49.07407 34.13848 25.60384 100.28178 25.60384 100.28178 19.2029 100.28179 2.13366 110.95006 81.07889 38.40579 83.21254 25.60386 6.401-140.82123 0-160.02412-23.4702-110.95006-23.4702-110.95006z" fill="#3f3d56"/><path d="m850.89294 223.23648h26.38265s18.42411 81.07889 20.55776 89.61352 6.401 49.07406 4.26731 49.07406-44.80675-8.53462-44.80675-2.13365z" fill="#3f3d56"/><path d="m850 424.01429h-101c-9.85608-45.34-10.67957-89.14649 0-131h101c-16.29919 41.10071-17.31775 84.60708 0 131z" fill="#f2f2f2"/><path d="m707.93806 368.325 29.87117 12.802s57.60868 8.53462 57.60868-14.93559-57.60868-10.66827-57.60868-10.66827l-19.20418-6.14014z" fill="#a0616a"/><path d="m714.339 210.43455-25.60386 6.401-19.20287 113.08368s-6.401 29.87117 4.26731 32.00482 40.53942 19.20295 40.53942 19.20295 4.26731-32.00483 12.80193-32.00483l-21.33653-17.06929 12.80193-74.67788z" fill="#3f3d56"/></g><g fill="#f2f2f2"><path d="m60.2485 352.90779h140v2h-140z"/><path d="m98.2485 334.90779h2v18.5h-2z"/><path d="m159.2485 334.90779h2v18.5h-2z"/><path d="m109.2485 56.90779h140v2h-140z"/><path d="m209.2485 58.40779h2v18.5h-2z"/><path d="m148.2485 58.40779h2v18.5h-2z"/><path d="m250.2485 253.90779h140v2h-140z"/><path d="m350.2485 255.40779h2v18.5h-2z"/><path d="m289.2485 255.40779h2v18.5h-2z"/><path d="m12.2485 252.90779h140v2h-140z"/><path d="m112.2485 254.40779h2v18.5h-2z"/><path d="m51.2485 254.40779h2v18.5h-2z"/><path d="m180.2485 152.90779h140v2h-140z"/><path d="m218.2485 134.90779h2v18.5h-2z"/><path d="m279.2485 134.90779h2v18.5h-2z"/></g></svg>